<svg id="svg" version="1.1" xmlns="http://www.w3.org/2000/svg" xmlns:xlink="http://www.w3.org/1999/xlink" width="400" height="400" viewBox="0, 0, 400,400"><g id="svgg"><path id="path0" d="M208.172 202.637 C 209.328 203.979,210.351 205.078,210.447 205.078 C 210.705 205.078,207.553 201.373,206.758 200.741 C 206.379 200.441,207.015 201.294,208.172 202.637 M187.671 206.738 L 186.523 208.008 187.793 206.861 C 188.976 205.791,189.242 205.469,188.940 205.469 C 188.873 205.469,188.302 206.040,187.671 206.738 M213.281 208.070 C 213.281 208.283,213.765 208.884,214.355 209.405 L 215.430 210.352 214.453 209.180 C 213.916 208.535,213.433 207.935,213.379 207.845 C 213.325 207.756,213.281 207.857,213.281 208.070 M220.703 216.138 C 220.703 216.205,221.274 216.776,221.973 217.407 L 223.242 218.555 222.095 217.285 C 221.025 216.102,220.703 215.836,220.703 216.138 M173.218 222.363 L 172.070 223.633 173.340 222.486 C 174.523 221.416,174.789 221.094,174.487 221.094 C 174.420 221.094,173.849 221.665,173.218 222.363 M227.312 223.340 C 228.468 224.683,229.492 225.781,229.587 225.781 C 229.846 225.781,226.694 222.076,225.898 221.445 C 225.520 221.144,226.156 221.997,227.312 223.340 M235.156 231.763 C 235.156 231.830,235.728 232.401,236.426 233.032 L 237.695 234.180 236.548 232.910 C 235.479 231.727,235.156 231.461,235.156 231.763 M158.764 237.988 L 157.617 239.258 158.887 238.111 C 159.585 237.479,160.156 236.908,160.156 236.841 C 160.156 236.539,159.834 236.805,158.764 237.988 M241.765 238.965 C 242.921 240.308,243.945 241.406,244.040 241.406 C 244.299 241.406,241.147 237.701,240.352 237.070 C 239.973 236.769,240.609 237.622,241.765 238.965 M249.609 247.388 C 249.609 247.455,250.181 248.026,250.879 248.657 L 252.148 249.805 251.001 248.535 C 249.932 247.352,249.609 247.086,249.609 247.388 M144.311 253.613 L 143.164 254.883 144.434 253.736 C 145.617 252.666,145.883 252.344,145.581 252.344 C 145.514 252.344,144.942 252.915,144.311 253.613 M256.218 254.590 C 257.374 255.933,258.398 257.031,258.493 257.031 C 258.752 257.031,255.600 253.326,254.805 252.695 C 254.426 252.394,255.062 253.247,256.218 254.590 M194.244 254.485 C 191.798 255.172,189.079 256.519,186.826 258.162 C 185.918 258.824,168.712 278.045,148.589 300.874 C 128.466 323.704,111.632 342.790,111.182 343.288 L 110.362 344.193 111.288 344.891 C 115.070 347.744,135.617 357.829,137.902 357.954 C 138.746 358.000,143.350 352.955,169.309 323.535 C 186.039 304.575,199.848 289.063,199.996 289.063 C 200.144 289.063,213.941 304.575,230.658 323.535 C 247.374 342.495,261.283 358.063,261.565 358.131 C 263.323 358.553,289.472 345.497,289.448 344.209 C 289.430 343.205,214.398 259.012,212.222 257.553 C 207.269 254.233,199.730 252.946,194.244 254.485 M264.063 263.013 C 264.063 263.080,264.634 263.651,265.332 264.282 L 266.602 265.430 265.454 264.160 C 264.385 262.977,264.063 262.711,264.063 263.013 M270.672 270.215 C 271.828 271.558,272.851 272.656,272.947 272.656 C 273.205 272.656,270.053 268.951,269.258 268.320 C 268.879 268.019,269.515 268.872,270.672 270.215 M278.516 278.638 C 278.516 278.705,279.087 279.276,279.785 279.907 L 281.055 281.055 279.907 279.785 C 278.838 278.602,278.516 278.336,278.516 278.638 M285.301 286.051 C 286.348 287.278,287.287 288.281,287.389 288.281 C 287.651 288.281,284.397 284.434,283.851 284.099 C 283.602 283.946,284.255 284.824,285.301 286.051 M299.754 301.676 C 300.801 302.903,301.740 303.906,301.842 303.906 C 302.104 303.906,298.850 300.059,298.304 299.724 C 298.055 299.571,298.708 300.449,299.754 301.676 M96.264 305.566 L 95.117 306.836 96.387 305.689 C 97.570 304.619,97.836 304.297,97.534 304.297 C 97.467 304.297,96.896 304.868,96.264 305.566 M314.208 317.301 C 315.254 318.528,316.193 319.531,316.295 319.531 C 316.557 319.531,313.303 315.684,312.758 315.349 C 312.508 315.196,313.161 316.074,314.208 317.301 " stroke="none" fill="#ae65ae" fill-rule="evenodd"></path><path id="path1" d="M194.185 72.079 C 187.624 73.915,195.466 65.990,109.157 158.008 C 69.257 200.547,36.094 235.902,35.461 236.576 L 34.310 237.800 35.733 243.216 C 38.309 253.019,44.583 270.117,45.604 270.117 C 45.807 270.117,80.562 233.335,122.837 188.379 C 165.113 143.423,199.836 106.641,199.999 106.641 C 200.163 106.641,234.888 143.423,277.166 188.379 C 319.443 233.335,354.215 270.117,354.436 270.117 C 355.441 270.117,361.692 253.016,364.261 243.237 L 365.679 237.841 364.002 236.011 C 340.340 210.174,213.329 75.713,211.617 74.687 C 206.627 71.695,199.411 70.616,194.185 72.079 " stroke="none" fill="#cb9bcb" fill-rule="evenodd"></path><path id="path2" d="M192.547 0.785 C 168.629 6.670,160.517 36.608,178.188 53.772 C 198.043 73.058,231.266 58.879,231.247 31.127 C 231.233 10.861,212.210 -4.053,192.547 0.785 M111.523 20.631 C 107.246 22.224,96.134 28.674,87.109 34.802 C 14.215 84.299,-17.654 177.172,9.416 261.214 C 50.322 388.211,201.651 440.354,312.305 365.579 C 430.206 285.906,428.850 111.011,309.724 32.590 C 289.905 19.543,283.379 17.591,275.977 22.499 C 265.629 29.359,267.829 43.685,280.255 50.366 C 335.490 80.064,369.664 137.256,369.664 200.000 C 369.664 213.897,369.206 218.301,365.798 237.202 C 362.803 253.818,353.824 274.897,342.070 292.911 C 340.338 295.565,338.646 298.238,338.308 298.851 C 333.937 306.799,316.797 324.424,303.513 334.631 C 289.683 345.258,269.132 356.876,260.938 358.702 C 260.400 358.821,257.412 359.795,254.297 360.864 C 216.201 373.947,174.796 372.646,134.766 357.108 C 127.638 354.342,112.674 346.583,110.156 344.349 C 109.619 343.872,106.898 341.938,104.110 340.052 C 41.397 297.622,14.846 218.490,39.031 146.094 C 52.217 106.622,80.957 71.695,116.174 52.344 C 127.628 46.050,130.225 42.807,130.258 34.757 C 130.300 24.658,120.517 17.282,111.523 20.631 " stroke="none" fill="#dcc4dc" fill-rule="evenodd"></path><path id="path3" d="M194.492 159.550 C 191.846 160.280,188.429 161.927,187.633 162.858 C 187.249 163.306,186.735 163.672,186.490 163.672 C 186.245 163.672,185.206 164.595,184.182 165.723 C 180.792 169.455,175.997 174.672,174.609 176.138 C 173.229 177.597,170.186 180.871,165.738 185.685 C 164.404 187.129,162.221 189.491,160.888 190.933 C 159.555 192.375,157.419 194.697,156.141 196.094 C 154.863 197.490,152.760 199.775,151.467 201.172 C 150.174 202.568,148.128 204.785,146.921 206.099 C 145.714 207.412,143.605 209.697,142.234 211.177 C 137.279 216.525,135.295 218.676,132.031 222.240 C 130.205 224.234,128.096 226.516,127.344 227.310 C 125.911 228.824,122.513 232.482,118.555 236.771 C 117.266 238.168,115.083 240.530,113.705 242.019 C 112.327 243.508,110.154 245.869,108.876 247.266 C 105.826 250.598,99.780 257.155,94.968 262.349 C 90.013 267.697,88.029 269.848,84.766 273.412 C 82.939 275.406,80.830 277.688,80.078 278.482 C 79.326 279.276,77.568 281.158,76.172 282.665 C 74.775 284.171,72.578 286.538,71.289 287.925 C 65.275 294.396,62.330 297.667,62.021 298.219 C 61.461 299.220,68.188 307.770,76.847 317.063 L 81.281 321.822 83.512 319.434 C 84.738 318.121,86.357 316.394,87.109 315.597 C 87.861 314.800,89.971 312.514,91.797 310.516 C 94.953 307.063,98.562 303.169,101.563 299.977 C 102.314 299.177,104.424 296.886,106.250 294.884 C 108.076 292.883,110.273 290.513,111.133 289.618 C 111.992 288.723,114.189 286.349,116.016 284.343 C 117.842 282.336,120.039 279.962,120.898 279.065 C 121.758 278.169,123.955 275.798,125.781 273.795 C 129.104 270.152,132.587 266.379,135.156 263.642 C 135.908 262.841,138.018 260.550,139.844 258.552 C 142.819 255.296,145.434 252.475,149.609 248.020 C 150.361 247.217,152.471 244.925,154.297 242.927 C 157.272 239.671,159.888 236.850,164.063 232.395 C 164.814 231.592,166.924 229.300,168.750 227.302 C 171.796 223.967,175.007 220.506,178.516 216.774 C 179.268 215.974,181.377 213.685,183.203 211.688 C 185.029 209.690,187.600 206.902,188.915 205.493 C 190.231 204.083,192.428 201.715,193.798 200.230 C 195.168 198.745,197.129 196.661,198.156 195.600 L 200.022 193.669 202.062 195.803 C 205.905 199.824,209.182 203.339,212.109 206.582 C 213.721 208.367,215.830 210.665,216.797 211.689 C 217.764 212.713,219.682 214.765,221.060 216.248 C 222.438 217.732,224.635 220.097,225.943 221.506 C 227.250 222.914,229.639 225.522,231.250 227.301 C 232.861 229.081,234.971 231.364,235.938 232.375 C 238.358 234.907,242.213 239.072,245.703 242.926 C 247.314 244.706,249.424 246.989,250.391 248.000 C 253.207 250.946,257.001 255.040,260.156 258.538 C 261.768 260.325,263.877 262.614,264.844 263.625 C 267.660 266.571,271.454 270.665,274.609 274.163 C 276.221 275.950,278.330 278.243,279.297 279.260 C 282.310 282.427,286.493 286.951,293.945 295.102 C 295.664 296.982,297.861 299.342,298.828 300.347 C 299.795 301.352,301.641 303.329,302.930 304.741 C 309.827 312.298,311.680 314.308,313.281 315.971 C 314.248 316.976,315.866 318.704,316.877 319.812 L 318.714 321.827 323.150 317.066 C 328.693 311.118,331.493 307.830,335.314 302.784 C 338.809 298.169,339.004 299.205,333.534 293.317 C 331.459 291.084,329.279 288.730,328.689 288.086 C 328.099 287.441,325.990 285.156,324.002 283.008 C 322.014 280.859,319.908 278.574,319.323 277.930 C 318.737 277.285,317.182 275.610,315.867 274.207 C 314.552 272.804,311.807 269.832,309.766 267.601 C 307.725 265.371,305.615 263.078,305.078 262.504 C 304.541 261.931,302.432 259.644,300.391 257.422 C 298.350 255.200,296.240 252.915,295.703 252.344 C 295.166 251.773,293.057 249.488,291.016 247.266 C 288.975 245.044,286.865 242.761,286.328 242.193 C 285.307 241.114,278.592 233.862,276.736 231.836 C 276.146 231.191,274.037 228.906,272.049 226.758 C 270.061 224.609,267.955 222.324,267.370 221.680 C 266.784 221.035,265.229 219.354,263.914 217.945 C 262.599 216.535,260.469 214.238,259.180 212.841 C 257.891 211.443,255.781 209.160,254.492 207.767 C 253.203 206.374,250.479 203.411,248.438 201.183 C 246.396 198.955,244.287 196.665,243.750 196.094 C 243.213 195.523,241.104 193.238,239.063 191.016 C 237.021 188.794,234.912 186.511,234.375 185.943 C 231.869 183.293,225.597 176.486,220.313 170.679 C 213.434 163.122,211.295 161.464,206.420 159.916 C 203.075 158.854,197.623 158.686,194.492 159.550 " stroke="none" fill="#bc84bc" fill-rule="evenodd"></path><path id="path4" d="" stroke="none" fill="#cca7cc" fill-rule="evenodd"></path></g></svg>